<svg height="300px" viewBox="0 0 500 500" width="300px" xmlns="http://www.w3.org/2000/svg">
    <path d="m80 352h-80v80h96v-80zm0 0" fill="#787680" />
    <path d="m464 392c0 22.09375-17.910156 40-40 40h-328v-80h328c22.089844 0 40 17.910156 40 40zm0 0" fill="#acabb1" />
    <g fill="#ffde55">
        <path d="m232 392c0 8.835938-7.164062 16-16 16s-16-7.164062-16-16 7.164062-16 16-16 16 7.164062 16 16zm0 0" />
        <path d="m168 392c0 8.835938-7.164062 16-16 16s-16-7.164062-16-16 7.164062-16 16-16 16 7.164062 16 16zm0 0" />
        <path d="m296 392c0 8.835938-7.164062 16-16 16s-16-7.164062-16-16 7.164062-16 16-16 16 7.164062 16 16zm0 0" />
        <path d="m360 392c0 8.835938-7.164062 16-16 16s-16-7.164062-16-16 7.164062-16 16-16 16 7.164062 16 16zm0 0" />
        <path d="m424 392c0 8.835938-7.164062 16-16 16s-16-7.164062-16-16 7.164062-16 16-16 16 7.164062 16 16zm0 0" />
    </g>
    <path d="m48 136c13.253906 0 24-10.746094 24-24 .011719-.453125-.011719-.910156-.078125-1.359375-.660156-12.175781-10.382813-21.902344-22.5625-22.558594-.449219-.066406-.90625-.09375-1.359375-.082031-13.253906 0-24 10.746094-24 24s10.746094 24 24 24zm0 0" fill="#ee8700" />
    <path d="m134.71875 47.921875c.425781.066406.851562.09375 1.28125.078125 9.457031-.019531 18.019531-5.585938 21.871094-14.222656 3.851562-8.636719 2.273437-18.730469-4.03125-25.777344-4.503906-5.128906-11.015625-8.046875-17.839844-8-13.253906 0-24 10.746094-24 24-.011719.429688.011719.855469.078125 1.28125.578125 12.257812 10.386719 22.0625 22.640625 22.640625zm0 0" fill="#ee8700" />
    <path id="joint3" class="joint" d="m326.078125 40c.640625.640625 1.28125 1.28125 1.921875 1.839844 7.046875 6.304687 17.140625 7.882812 25.777344 4.03125 8.632812-3.851563 14.203125-12.414063 14.222656-21.871094 0-13.253906-10.746094-24-24-24-13.234375.0507812-23.953125 10.765625-24 24-.042969 5.90625 2.128906 11.613281 6.078125 16zm0 0" fill="#ee8700" />
    <path id="cargo1" class="cargo cargo1" d="m192 288h80v64h-80zm0 0" fill="#ffb655" />
    <path class="cargo cargo1" d="m216 288h32v32h-32zm0 0" fill="#ff6243" />
    <path class="cargo cargo2" d="m304 288h80v64h-80zm0 0" fill="#ffb655" />
    <path class="cargo cargo2" d="m328 288h32v32h-32zm0 0" fill="#ff6243" />
    <path id="arm" class="active" d="m328 41.839844v118.160156h32v-118.160156c-9.085938 8.214844-22.914062 8.214844-32 0zm0 0" fill="#3d9ae2" />
    <path d="m71.921875 110.640625 62.796875-62.71875c-12.253906-.578125-22.0625-10.382813-22.640625-22.640625l-62.71875 62.800781c12.179687.65625 21.902344 10.382813 22.5625 22.558594zm0 0" fill="#5aaae7" />
    <path d="m80 352h-64l.558594-16 7.441406-224c0 13.253906 10.746094 24 24 24s24-10.746094 24-24l7.441406 224zm0 0" fill="#5aaae7" />
    <path d="m153.839844 40h172.238281c-8.125-9.128906-8.089844-22.910156.082031-32h-172.320312c8.214844 9.085938 8.214844 22.914062 0 32zm0 0" fill="#5aaae7" />
    <path d="m80 352h-64l.558594-16h62.882812zm0 0" fill="#3d9ae2" />
    <path class="cargo cargo1" d="m192 336h80v16h-80zm0 0" fill="#ffa733" />
    <path class="cargo cargo2" d="m304 336h80v16h-80zm0 0" fill="#ffa733" />
    <path id="fork" class="active" d="m381.65625 202.34375-24-24c-1.5-1.5-3.535156-2.34375-5.65625-2.34375v-16h-16v16c-1.578125.003906-3.125.46875-4.441406 1.34375l-24 16c-2.222656 1.484375-3.558594 3.984375-3.558594 6.65625v32c0 2.121094.84375 4.15625 2.34375 5.65625l16 16 11.3125-11.3125-13.65625-13.65625v-24.40625l18.398438-12.28125h10.265624l19.335938 19.3125v17.375l-13.65625 13.65625 11.3125 11.3125 16-16c1.5-1.5 2.34375-3.535156 2.34375-5.65625v-24c0-2.121094-.84375-4.15625-2.34375-5.65625zm0 0" fill="#787680" />
    <path d="m352 24c0 4.417969-3.582031 8-8 8s-8-3.582031-8-8 3.582031-8 8-8 8 3.582031 8 8zm0 0" fill="#57565c" />
    <path d="m144 24c0 4.417969-3.582031 8-8 8s-8-3.582031-8-8 3.582031-8 8-8 8 3.582031 8 8zm0 0" fill="#57565c" />
    <path d="m56 112c0 4.417969-3.582031 8-8 8s-8-3.582031-8-8 3.582031-8 8-8 8 3.582031 8 8zm0 0" fill="#57565c" />
</svg>
